<svg width="21" height="21" viewBox="0 0 21 21" fill="none" xmlns="http://www.w3.org/2000/svg">
<path d="M5.1934 1.72862C8.30719 0.23293 12.0403 1.09722 14.1827 3.80968C16.3247 6.52209 16.3044 10.3583 14.1338 13.048L15.1895 13.7775C15.3543 13.8831 15.5069 14.0074 15.6436 14.1476L19.8643 18.3751C20.0527 18.5847 20.0438 18.9052 19.8438 19.1036L19.1045 19.8439C19.0056 19.9437 18.871 20 18.7305 20.0001C18.5898 20.0001 18.4546 19.9438 18.3555 19.8439L14.1338 15.6163C14.0172 15.4994 13.9112 15.3724 13.8174 15.2364L13.0254 14.1788C11.7158 15.226 10.09 15.7965 8.4141 15.796C4.96064 15.808 1.9594 13.4227 1.18754 10.0519C0.415763 6.68095 2.07957 3.22442 5.1934 1.72862ZM8.4141 3.11437C5.49981 3.11437 3.13773 5.4802 3.13773 8.39855C3.13798 11.3167 5.49996 13.6817 8.4141 13.6817C9.81356 13.6817 11.156 13.1258 12.1455 12.1349C13.135 11.144 13.6903 9.79982 13.6905 8.39855C13.6905 5.4802 11.3284 3.11437 8.4141 3.11437Z" fill="black"/>
<path d="M5.1934 1.72862L5.03103 1.3906L5.03102 1.3906L5.1934 1.72862ZM14.1827 3.80968L14.477 3.57727L14.4769 3.57725L14.1827 3.80968ZM14.1338 13.048L13.842 12.8125L13.5883 13.1268L13.9206 13.3565L14.1338 13.048ZM15.1895 13.7775L14.9762 14.0861L14.9871 14.0932L15.1895 13.7775ZM15.6436 14.1476L15.3752 14.4095L15.3782 14.4125L15.6436 14.1476ZM19.8643 18.3751L20.1432 18.1244L20.1366 18.1171L20.1297 18.1102L19.8643 18.3751ZM19.8438 19.1036L19.5796 18.8375L19.5784 18.8386L19.8438 19.1036ZM19.1045 19.8439L18.8392 19.5789L18.8382 19.5799L19.1045 19.8439ZM18.7305 20.0001V20.3751H18.7308L18.7305 20.0001ZM18.3555 19.8439L18.6219 19.5799L18.6209 19.5789L18.3555 19.8439ZM14.1338 15.6163L13.8683 15.8812L13.8685 15.8813L14.1338 15.6163ZM13.8174 15.2364L14.1261 15.0235L14.1219 15.0175L14.1176 15.0117L13.8174 15.2364ZM13.0254 14.1788L13.3256 13.954L13.0936 13.6442L12.7912 13.8859L13.0254 14.1788ZM8.4141 15.796L8.4142 15.421L8.4128 15.421L8.4141 15.796ZM1.18754 10.0519L0.821997 10.1356L0.821999 10.1356L1.18754 10.0519ZM8.4141 3.11437L8.4141 2.73937H8.4141V3.11437ZM3.13773 8.39855H2.76273V8.39858L3.13773 8.39855ZM8.4141 13.6817V14.0567H8.4141L8.4141 13.6817ZM12.1455 12.1349L12.4109 12.3999L12.4109 12.3999L12.1455 12.1349ZM13.6905 8.39855L14.0655 8.39858V8.39855H13.6905ZM5.1934 1.72862L5.35577 2.06665C8.31124 0.647005 11.8547 1.46723 13.8884 4.04211L14.1827 3.80968L14.4769 3.57725C12.2259 0.727219 8.30314 -0.181146 5.03103 1.3906L5.1934 1.72862ZM14.1827 3.80968L13.8884 4.04209C15.9219 6.61707 15.9026 10.2591 13.842 12.8125L14.1338 13.048L14.4257 13.2835C16.7061 10.4576 16.7275 6.4271 14.477 3.57727L14.1827 3.80968ZM14.1338 13.048L13.9206 13.3565L14.9763 14.086L15.1895 13.7775L15.4027 13.4689L14.347 12.7395L14.1338 13.048ZM15.1895 13.7775L14.9871 14.0932C15.1279 14.1834 15.2584 14.2897 15.3752 14.4094L15.6436 14.1476L15.912 13.8857C15.7554 13.7251 15.5806 13.5827 15.3919 13.4617L15.1895 13.7775ZM15.6436 14.1476L15.3782 14.4125L19.5989 18.6401L19.8643 18.3751L20.1297 18.1102L15.909 13.8826L15.6436 14.1476ZM19.8643 18.3751L19.5854 18.6258C19.6404 18.6869 19.6375 18.7801 19.5796 18.8375L19.8438 19.1036L20.1079 19.3698C20.45 19.0303 20.465 18.4825 20.1432 18.1244L19.8643 18.3751ZM19.8438 19.1036L19.5784 18.8386L18.8392 19.5789L19.1045 19.8439L19.3699 20.1088L20.1091 19.3686L19.8438 19.1036ZM19.1045 19.8439L18.8382 19.5799C18.8094 19.6089 18.7705 19.6251 18.7302 19.6251L18.7305 20.0001L18.7308 20.3751C18.9715 20.3749 19.2017 20.2785 19.3709 20.1078L19.1045 19.8439ZM18.7305 20.0001V19.6251C18.6897 19.6251 18.6504 19.6087 18.6219 19.5799L18.3555 19.8439L18.0891 20.1078C18.2588 20.279 18.49 20.3751 18.7305 20.3751V20.0001ZM18.3555 19.8439L18.6209 19.5789L14.3992 15.3513L14.1338 15.6163L13.8685 15.8813L18.0902 20.1088L18.3555 19.8439ZM14.1338 15.6163L14.3993 15.3515C14.2984 15.2503 14.2069 15.1406 14.1261 15.0235L13.8174 15.2364L13.5088 15.4494C13.6155 15.6041 13.736 15.7485 13.8683 15.8812L14.1338 15.6163ZM13.8174 15.2364L14.1176 15.0117L13.3256 13.954L13.0254 14.1788L12.7253 14.4036L13.5173 15.4612L13.8174 15.2364ZM13.0254 14.1788L12.7912 13.8859C11.5481 14.88 10.0048 15.4214 8.4142 15.421L8.4141 15.796L8.414 16.171C10.1751 16.1715 11.8836 15.572 13.2596 14.4717L13.0254 14.1788ZM8.4141 15.796L8.4128 15.421C5.13499 15.4324 2.28587 13.1683 1.55308 9.96816L1.18754 10.0519L0.821999 10.1356C1.63293 13.677 4.78629 16.1836 8.4154 16.171L8.4141 15.796ZM1.18754 10.0519L1.55308 9.96817C0.82035 6.7678 2.40008 3.48648 5.35577 2.06665L5.1934 1.72862L5.03102 1.3906C1.75907 2.96236 0.0111756 6.5941 0.821997 10.1356L1.18754 10.0519ZM8.4141 3.11437V2.73937C5.29217 2.73937 2.76273 5.27362 2.76273 8.39855H3.13773H3.51273C3.51273 5.68677 5.70745 3.48937 8.4141 3.48937V3.11437ZM3.13773 8.39855L2.76273 8.39858C2.763 11.5233 5.29238 14.0567 8.4141 14.0567V13.6817V13.3067C5.70755 13.3067 3.51296 11.11 3.51273 8.39851L3.13773 8.39855ZM8.4141 13.6817L8.4141 14.0567C9.91302 14.0567 11.3509 13.4613 12.4109 12.3999L12.1455 12.1349L11.8802 11.8699C10.961 12.7903 9.71409 13.3067 8.4141 13.3067L8.4141 13.6817ZM12.1455 12.1349L12.4109 12.3999C13.4707 11.3385 14.0653 9.899 14.0655 8.39858L13.6905 8.39855L13.3155 8.39851C13.3154 9.70065 12.7993 10.9495 11.8802 11.8699L12.1455 12.1349ZM13.6905 8.39855H14.0655C14.0655 5.27363 11.536 2.73937 8.4141 2.73937L8.4141 3.11437L8.4141 3.48937C11.1207 3.48937 13.3155 5.68677 13.3155 8.39855H13.6905Z" fill="white"/>
</svg>
